<svg xmlns="http://www.w3.org/2000/svg"  width="170" height="170" viewBox="202 244 170 170">
  <path fill="#f55300" d="M286.375 245.968c-45.889.388-82.777 37.904-82.389 83.793.388 45.89 37.904 82.777 83.793 82.39 45.89-.389 82.777-37.905 82.39-83.794-.389-45.889-37.904-82.777-83.794-82.389"/>
  <path fill="#ff700b" d="M286.375 245.968c-19.648.167-37.632 7.153-51.76 18.675a50.96 50.96 0 0 0-7.796 11.741c-14.829 30.999 4.126 71.081 42.335 89.53 38.21 18.446 81.205 8.271 96.033-22.728a51.479 51.479 0 0 0 4.87-18.143c-2.118-44.336-38.904-79.454-83.682-79.075"/>
  <path fill="#ff8c04" d="M353.416 321.708c-10.076 17.797-40.14 19.825-67.155 4.53-27.015-15.293-40.747-42.117-30.672-59.914 10.076-17.796 40.142-19.824 67.157-4.53 27.014 15.294 40.746 42.118 30.67 59.914"/>
  <path fill="#cd4205" d="M287.207 282.748c-7.466.063-13.468 6.167-13.404 13.633.063 7.466 6.167 13.468 13.632 13.404 7.467-.062 13.468-6.166 13.406-13.633-.063-7.465-6.167-13.467-13.634-13.404"/>
  <path fill="#9e320e" d="M287.417 307.568c-6.232.052-11.344-4.975-11.396-11.205-.054-6.234 4.973-11.346 11.204-11.399 6.233-.052 11.345 4.975 11.397 11.207.053 6.232-4.973 11.344-11.205 11.397"/>
  <path fill="#cd4205" d="M228.009 303.481c2.878-6.89 2.421-13.64-1.024-15.08-3.444-1.44-8.57 2.978-11.45 9.867-2.88 6.89-2.42 13.64 1.023 15.08 3.445 1.44 8.57-2.977 11.45-9.867"/>
  <path fill="#9e320e" d="M217.58 299.121c2.66-6.365 6.84-9.39 8.55-8.676 1.708.715 2.493 5.815-.168 12.179-2.66 6.367-6.84 9.39-8.548 8.676-1.71-.713-2.495-5.813.167-12.179"/>
  <path fill="#cd4205" d="M346.147 303.481c-2.88-6.89-2.421-13.64 1.024-15.08 3.444-1.44 8.57 2.978 11.448 9.867 2.881 6.89 2.423 13.64-1.023 15.08-3.444 1.44-8.57-2.977-11.449-9.867"/>
  <path fill="#9e320e" d="M356.574 299.121c-2.66-6.365-6.84-9.39-8.548-8.676-1.71.715-2.495 5.815.166 12.179 2.66 6.367 6.84 9.39 8.55 8.676 1.708-.713 2.492-5.813-.168-12.179"/>
  <path fill="#cd4205" d="M316.525 272.124c-6.683-3.33-10.75-8.74-9.083-12.081 1.665-3.342 8.432-3.35 15.115-.018 6.682 3.331 10.749 8.74 9.082 12.082-1.665 3.341-8.432 3.349-15.114.017"/>
  <path fill="#9e320e" d="M321.567 262.01c-6.174-3.078-11.314-2.634-12.14-.977-.828 1.658 1.912 6.03 8.087 9.108s11.315 2.635 12.141.978c.827-1.658-1.913-6.03-8.088-9.108"/>
  <path fill="#cd4205" d="M258.12 272.124c6.682-3.33 10.749-8.74 9.082-12.081-1.665-3.342-8.432-3.35-15.115-.018-6.682 3.331-10.748 8.74-9.082 12.082 1.665 3.341 8.433 3.349 15.114.017"/>
  <path fill="#9e320e" d="M253.075 262.01c6.175-3.078 11.315-2.634 12.14-.977.828 1.658-1.912 6.03-8.086 9.108s-11.315 2.635-12.142.978c-.826-1.658 1.914-6.03 8.088-9.108"/>
  <path fill="#cd4205" d="M286.947 375.372c7.467-.063 13.468-6.167 13.406-13.634-.064-7.465-6.168-13.466-13.634-13.404-7.466.063-13.468 6.167-13.405 13.632.063 7.467 6.167 13.47 13.633 13.406"/>
  <path fill="#9e320e" d="M286.738 350.55c6.232-.052 11.344 4.974 11.396 11.206.053 6.232-4.973 11.345-11.205 11.397-6.232.053-11.344-4.973-11.396-11.205-.054-6.232 4.973-11.344 11.205-11.398"/>
  <path fill="#cd4205" d="M346.147 354.637c-2.88 6.89-2.421 13.641 1.024 15.081 3.444 1.44 8.57-2.978 11.448-9.868 2.881-6.888 2.423-13.64-1.023-15.078-3.444-1.44-8.57 2.977-11.449 9.865"/>
  <path fill="#9e320e" d="M356.574 358.996c-2.66 6.365-6.84 9.39-8.548 8.676-1.71-.715-2.495-5.815.166-12.18 2.66-6.366 6.84-9.39 8.55-8.676 1.708.714 2.492 5.814-.168 12.18"/>
  <path fill="#cd4205" d="M228.009 354.637c2.878 6.89 2.421 13.641-1.024 15.081-3.444 1.44-8.57-2.978-11.45-9.868-2.88-6.888-2.42-13.64 1.023-15.078 3.445-1.44 8.57 2.977 11.45 9.865"/>
  <path fill="#9e320e" d="M217.58 358.996c2.66 6.365 6.84 9.39 8.55 8.676 1.708-.715 2.493-5.815-.168-12.18-2.66-6.366-6.84-9.39-8.548-8.676-1.71.714-2.495 5.814.167 12.18"/>
  <path fill="#cd4205" d="M257.63 385.993c6.683 3.33 10.75 8.74 9.083 12.081-1.666 3.34-8.432 3.348-15.115.018-6.683-3.332-10.748-8.74-9.083-12.082 1.666-3.341 8.432-3.349 15.115-.017"/>
  <path fill="#9e320e" d="M252.587 396.108c6.175 3.078 11.315 2.636 12.14.977.828-1.657-1.912-6.03-8.086-9.108-6.175-3.077-11.315-2.635-12.142-.977-.826 1.657 1.914 6.029 8.088 9.108"/>
  <path fill="#cd4205" d="M316.037 385.993c-6.683 3.33-10.75 8.74-9.083 12.081 1.665 3.34 8.432 3.348 15.115.018 6.682-3.332 10.748-8.74 9.082-12.082-1.665-3.341-8.433-3.349-15.114-.017"/>
  <path fill="#9e320e" d="M321.08 396.108c-6.175 3.078-11.315 2.636-12.142.977-.827-1.657 1.913-6.03 8.088-9.108 6.175-3.077 11.315-2.635 12.141-.977.827 1.657-1.913 6.029-8.088 9.108"/>
  <path fill="#cd4205" d="M250.04 315.54c-6.262.053-11.286 6.15-11.223 13.615.062 7.466 5.19 13.475 11.45 13.423 6.263-.053 11.287-6.149 11.224-13.615-.062-7.466-5.19-13.476-11.452-13.423"/>
  <path fill="#9e320e" d="M250.249 340.361c-5.028.041-9.163-4.993-9.216-11.224-.052-6.233 3.996-11.337 9.024-11.38 5.029-.041 9.164 4.994 9.216 11.226.053 6.231-3.996 11.335-9.024 11.378"/>
  <path fill="#cd4205" d="M324.117 315.54c6.26.053 11.285 6.15 11.222 13.615-.063 7.466-5.19 13.475-11.45 13.423-6.263-.053-11.287-6.149-11.224-13.615.062-7.466 5.19-13.476 11.452-13.423"/>
  <path fill="#9e320e" d="M323.906 340.361c5.028.041 9.163-4.993 9.215-11.224.053-6.233-3.995-11.337-9.023-11.38-5.03-.041-9.164 4.994-9.216 11.226-.052 6.231 3.996 11.335 9.024 11.378"/>
</svg>
