<svg xmlns="http://www.w3.org/2000/svg" width="800" height="800" viewBox="0 0 8000 8000"><path fill="#dfe3eb" d="M5150 6429c-125-13-185-20-220-29-204-51-364-133-497-254-62-57-180-196-191-225-3-9-18-35-34-59-16-23-38-62-49-85s-30-60-44-82c-13-22-32-55-41-74-10-18-55-73-102-122-64-67-99-96-148-119-35-16-72-30-82-30-20 0-137-44-156-58-42-33-110-37-601-36-488 1-490 1-610 27-141 30-233 31-265 2-20-18-20-27-18-259l3-241 70-8c63-7 147 0 225 19 31 7 546 7 580-1 14-3 104-8 200-11 175-5 313-18 354-34 11-4 41-16 66-25 41-16 128-54 172-76 10-5 23-9 29-9 22 0 139-92 188-148 49-55 121-165 121-183 0-5 4-17 10-27 5-9 30-60 54-112s65-123 90-158c25-34 46-66 46-71s47-53 103-107c73-69 129-113 188-145 83-46 206-95 264-106 17-2 35-9 40-13 10-9 20-10 175-28 47-6 321-13 610-17 289-3 669-8 845-10 383-5 444 3 607 80 102 48 134 70 214 150 92 92 138 159 182 265 63 154 65 170 72 785 9 726 6 922-13 1007-14 58-43 126-98 228-33 61-143 190-162 190-5 0-27 15-50 34-62 50-178 102-292 130-87 21-159 25-555 31-948 14-1176 17-1195 19-11 1-49-1-85-5m2090-974v-75H4940v-720h2310v-140H4800v430H2459l3 73 3 72 1168 3 1167 2v430h2440zM1260 4337c-3-3-27-8-55-11-108-15-272-71-334-116-16-11-35-20-41-20-7 0-53-42-104-93-127-130-202-269-226-421-6-38-13-74-17-79-3-5-6-221-8-480-1-260-6-569-10-687-5-174-4-231 9-300 31-174 58-241 139-359 39-57 128-151 142-151 6 0 24-14 40-30 16-17 32-30 37-30s26-11 48-25 40-23 40-20c0 2 17-4 38-15 45-24 199-56 307-64 203-14 1671-27 1760-14 75 10 226 47 262 64 17 7 35 14 41 14 5 0 51 23 103 51 106 58 191 122 264 200 52 55 145 173 145 183 0 3 17 34 38 68 20 35 51 90 67 123 61 124 188 272 281 326 29 16 85 38 126 48 40 11 100 32 133 49 34 17 87 33 120 37 80 10 815 6 952-5 120-10 157-16 186-31 11-6 59-12 107-13 81-1 91 1 114 23l26 24v233c0 149-4 235-10 239-22 14-188 12-260-2-82-16-481-13-885 6-220 11-245 15-355 61-41 18-79 33-85 34-25 5-185 88-195 101-7 8-18 15-25 15-23 0-205 237-205 266 0 16-107 232-126 255-8 8-14 19-14 23 0 5-13 25-30 46s-30 42-30 48c0 15-195 197-232 216-18 10-67 35-108 56-67 35-144 62-250 91-115 31-243 38-753 44-285 3-548 8-585 10-129 7-577 17-582 12m2018-1229 2-218h2340v-140H3279l3-220 3-220H840v150h2300v720H830v150l1223-2 1222-3z"/></svg>