<svg xmlns="http://www.w3.org/2000/svg" width="800" height="800" viewBox="0 0 8000 8000"><path fill="#dfe3eb" d="M3722 6876c-824-428-1436-863-1948-1389-593-608-905-1175-1005-1828-27-171-32-521-11-679 89-666 416-1124 1007-1415 465-229 944-244 1439-44 209 85 382 194 623 396 61 51 114 93 117 93s129-83 280-184c382-256 579-350 853-405 509-104 1045 30 1448 359 103 84 260 252 338 360 90 126 207 365 251 510 63 212 80 343 80 610 0 191-5 262-22 377-90 582-331 1080-775 1602-116 136-439 458-587 585-463 396-965 729-1567 1038-290 149-261 149-521 14m-130-1023c20-16 58-59 86-98 28-38 93-115 146-169 95-99 95-99 43-150-29-28-84-79-123-112-69-62-69-62-154 18-47 44-125 107-173 140-81 55-127 104-127 136 0 16 239 262 255 262 7 0 28-12 47-27m906-98c67-69 122-129 122-134 0-33-51-89-125-136-58-38-149-119-310-277-233-228-296-300-319-366-8-20-32-75-55-121-39-82-41-89-41-182 0-75 6-116 26-185 62-209 74-267 74-371 0-142-20-233-80-358-66-137-107-184-562-640-247-247-469-465-494-483-62-46-159-96-219-113-31-9-93-14-165-13-94 1-126 5-175 24-114 43-195 105-356 275-84 88-236 243-339 345-255 252-296 306-341 445-19 56-23 92-23 180 0 189 60 322 213 476 426 428 877 863 931 898 139 90 249 129 390 138 121 7 197-6 370-64 125-42 142-46 240-46 113-1 138 6 299 80 85 39 89 42 310 252 227 216 316 308 366 383 39 58 105 118 131 118 6 0 65-56 132-125m-224-589c47-31 195-93 271-113 93-24 183-12 365 49 155 51 155 51 295 52 150 0 202-10 315-62 134-62 190-110 570-487 206-205 397-392 424-416 40-36 138-146 174-194 27-36 54-95 78-167 51-153 34-340-44-478-40-72-102-141-327-365-116-115-267-269-335-341-136-142-214-201-318-241-57-22-83-26-182-27-72-1-134 4-165 13-60 17-157 67-219 113-68 50-948 936-984 991-49 74-109 204-131 287-16 55-21 105-21 187 0 124 8 175 49 308 49 157 53 180 50 277-4 85-8 102-41 169-20 41-47 99-61 129s-31 64-39 74c-14 18-6 28 111 142 69 68 127 124 128 124s18-11 37-24" /></svg>