<svg xmlns="http://www.w3.org/2000/svg" width="800" height="800" viewBox="0 0 8000 8000"><path fill="#dfe3eb" d="M2405 6940c-13-21-13-210 0-265 7-31 14-102 16-158 5-132 1-477-6-542-3-27-10-158-15-290-11-286-19-324-97-477-8-15-13-29-12-30 0-2-5-16-12-33-31-76-52-116-79-154-17-23-30-45-30-50 0-22-261-221-289-221-6 0-30-11-55-24-26-14-46-23-46-21 0 8-146-68-177-91-17-13-35-24-38-24-4 0-24-13-45-30-21-16-42-30-48-30-16 0-225-223-249-266-69-123-135-274-149-344-2-14-9-36-14-50s-11-41-14-60c-2-19-8-73-14-120s-14-299-17-560-9-594-13-740c-12-465-9-708 13-780 2-8 6-26 9-40 11-61 62-184 116-280 44-78 200-228 290-279 89-50 205-95 272-105 21-3 59-11 85-17 30-7 260-12 618-15 314-3 662-6 775-7 337-3 447 26 676 177 37 25 144 128 144 139 0 5 15 27 34 50 31 39 75 115 73 127-1 3 6 19 15 35 24 45 36 81 57 180 29 137 28 99 48 1445 6 469 6 577-2 620-2 14-7 49-10 78s-10 63-15 77-8 25-5 25c2 0-1 15-6 33-6 17-12 43-15 57-19 97-125 307-213 419-66 84-258 254-304 270-7 2-24 12-39 22-23 17-63 39-213 117-16 8-44 26-61 39s-36 23-42 23c-16 0-189 167-206 199-33 58-66 134-66 150-1 24-34 118-62 176-48 96-51 150-45 701 3 290 10 526 16 549 5 22 12 53 15 68 3 16 11 45 17 65 7 20 13 78 13 129 1 83-2 94-23 117-24 26-24 26-287 26-165 0-265-4-269-10M5435 6875c-22-18-26-93-9-188s16-205-6-672c-9-197-13-214-98-396-60-130-131-192-318-280-211-99-331-205-416-365-52-100-82-194-97-304-9-71-26-884-26-1245 0-189 15-260 78-380 59-111 196-227 325-274 94-35 182-40 717-45 591-5 598-5 732 60 160 77 285 247 317 434 17 97 26 432 29 1025 2 352 0 409-16 472-46 189-111 309-237 433-86 85-115 105-285 196-98 52-201 142-241 210-13 23-31 65-40 95s-25 73-35 96c-39 85-42 133-36 493 5 301 9 356 27 428 23 95 25 146 7 182-12 25-13 25-186 30-109 3-179 1-186-5"/></svg>